# xmcd CD database file
#
# Track frame offsets:
#	150
#	10465
#	28767
#	44967
#	59689
#	79695
#	96492
#	112070
#	133200
#	145397
#	159535
#	179072
#	193365
#	205957
#	225095
#	242200
#	261207
#	280772
#	304080
#
# Disc length: 4295 seconds
#
# Revision: 0
# Processed by: cddbd v1.5.1PL0 Copyright (c) Steve Scherf et al.
# Submitted via: CDex 1.51
#
DISCID=2c10c513
DTITLE=Various Artist - MONOGRAFIE vol 22
DYEAR=1900
DGENRE=New Age
TTITLE0=Main Title - Basic Instinct
TTITLE1=Tema Italiano - Il clan dei Siciliani
TTITLE2=Instinct  - Green Card
TTITLE3=Law and order - Inventions from the blue line
TTITLE4=Silk road - Silk Road vol. 1
TTITLE5=Main title - Escape from New York
TTITLE6=The X-FILES - The cult files
TTITLE7=Blade Runner - The cult files
TTITLE8=Melissa - Time cop
TTITLE9=The Laurel hause theme - Dark Alan
TTITLE10=2 the night - Noveau flamenco
TTITLE11=Dull Knife and Little Wolf - How the west was lost
TTITLE12=Exalibur - The cult files
TTITLE13=The immigrant  - Main theme - The Goodfather suite
TTITLE14=Chrysalis - Babylon 5
TTITLE15=Presumed innocent - Presumed innocent
TTITLE16=Braveheart - Celtic quilt
TTITLE17=Hunn. O Pani Nachella - Djnee tu kowa ziro
TTITLE18=Instanbul Dan Gorounteler - Suleyman the magnificient
EXTD=
EXTT0=
EXTT1=
EXTT2=
EXTT3=
EXTT4=
EXTT5=
EXTT6=
EXTT7=
EXTT8=
EXTT9=
EXTT10=
EXTT11=
EXTT12=
EXTT13=
EXTT14=
EXTT15=
EXTT16=
EXTT17=
EXTT18=
PLAYORDER=
